<?xml version="1.0" standalone="no"?>
<!DOCTYPE svg PUBLIC "-//W3C//DTD SVG 20010904//EN"
 "http://www.w3.org/TR/2001/REC-SVG-20010904/DTD/svg10.dtd">
<svg version="1.0" xmlns="http://www.w3.org/2000/svg"
 width="1024.000000pt" height="1024.000000pt" viewBox="0 0 1024.000000 1024.000000"
 preserveAspectRatio="xMidYMid meet">
<metadata>
Created by potrace 1.14, written by Peter Selinger 2001-2017
</metadata>
<g transform="translate(0.000000,1024.000000) scale(0.100000,-0.100000)"
fill="#000000" stroke="none">
<path d="M845 8948 c-11 -6 -26 -18 -32 -26 -10 -13 -13 -699 -13 -3354 0
-3623 -4 -3387 52 -3402 13 -3 366 -6 785 -6 l762 0 3 -460 c3 -425 4 -461 21
-477 17 -17 142 -18 2778 -18 l2760 0 19 25 c19 24 20 68 20 2001 l0 1976 357
354 c518 513 786 781 976 976 142 146 173 183 198 239 54 119 54 244 -1 359
-24 51 -75 106 -345 375 -363 361 -328 329 -380 356 -120 64 -257 67 -382 8
-44 -21 -96 -67 -237 -207 l-181 -181 -5 237 c-4 209 -7 238 -23 254 -17 17
-65 18 -797 21 l-780 2 0 443 c0 243 -3 452 -6 465 -15 55 168 52 -2796 52
-1959 -1 -2739 -4 -2753 -12z"/>
</g>
</svg>
